<mxfile host="app.diagrams.net" modified="2021-04-16T07:44:16.307Z" agent="5.0 (X11)" etag="dxAPLuknU45C5l0F1E3N" version="14.5.10" type="github" pages="2">
  <diagram id="riT8X2A_ONPbXt5bgRlh" name="Page-1">
    <mxGraphModel dx="2473" dy="887" grid="1" gridSize="10" guides="1" tooltips="1" connect="1" arrows="1" fold="1" page="1" pageScale="1" pageWidth="827" pageHeight="1169" background="#F1FAEE" math="0" shadow="0">
      <root>
        <mxCell id="0" />
        <mxCell id="1" style="" parent="0" />
        <mxCell id="v55RfGFPw0-nptX2fq-p-34" value="10.250.32.101" style="shape=umlFrame;whiteSpace=wrap;html=1;width=120;height=30;boundedLbl=1;verticalAlign=middle;align=left;spacingLeft=5;rounded=0;strokeColor=#457B9D;fillColor=#A8DADC;sketch=1;fontStyle=1;fontSize=16;fontColor=#1D3557;" parent="1" vertex="1">
          <mxGeometry x="-437" y="180" width="340" height="180" as="geometry" />
        </mxCell>
        <mxCell id="v55RfGFPw0-nptX2fq-p-35" value="10.250.32.102" style="shape=umlFrame;whiteSpace=wrap;html=1;width=120;height=30;boundedLbl=1;verticalAlign=middle;align=left;spacingLeft=5;rounded=0;strokeColor=#457B9D;fillColor=#A8DADC;sketch=1;fontStyle=1;fontSize=16;fontColor=#1D3557;" parent="1" vertex="1">
          <mxGeometry x="-437" y="510" width="340" height="180" as="geometry" />
        </mxCell>
        <mxCell id="v55RfGFPw0-nptX2fq-p-36" value="10.250.32.104" style="shape=umlFrame;whiteSpace=wrap;html=1;width=120;height=30;boundedLbl=1;verticalAlign=middle;align=left;spacingLeft=5;rounded=0;strokeColor=#457B9D;fillColor=#A8DADC;sketch=1;fontStyle=1;fontSize=16;fontColor=#1D3557;" parent="1" vertex="1">
          <mxGeometry x="26" y="350" width="340" height="210" as="geometry" />
        </mxCell>
        <mxCell id="v55RfGFPw0-nptX2fq-p-37" value="10.250.32.103" style="shape=umlFrame;whiteSpace=wrap;html=1;width=120;height=30;boundedLbl=1;verticalAlign=middle;align=left;spacingLeft=5;rounded=0;strokeColor=#457B9D;fillColor=#A8DADC;sketch=1;fontStyle=1;fontSize=16;fontColor=#1D3557;" parent="1" vertex="1">
          <mxGeometry x="26" y="80" width="340" height="210" as="geometry" />
        </mxCell>
        <mxCell id="v55RfGFPw0-nptX2fq-p-62" value="10.250.32.100" style="shape=umlFrame;whiteSpace=wrap;html=1;width=120;height=30;boundedLbl=1;verticalAlign=middle;align=left;spacingLeft=5;rounded=0;strokeColor=#457B9D;fillColor=#A8DADC;sketch=1;fontStyle=1;fontSize=16;fontColor=#1D3557;" parent="1" vertex="1">
          <mxGeometry x="420" y="80" width="180" height="260" as="geometry" />
        </mxCell>
        <mxCell id="v55RfGFPw0-nptX2fq-p-70" value="10.250.32.105" style="shape=umlFrame;whiteSpace=wrap;html=1;width=120;height=30;boundedLbl=1;verticalAlign=middle;align=left;spacingLeft=5;rounded=0;strokeColor=#457B9D;fillColor=#A8DADC;sketch=1;fontStyle=1;fontSize=16;fontColor=#1D3557;" parent="1" vertex="1">
          <mxGeometry x="26" y="620" width="340" height="210" as="geometry" />
        </mxCell>
        <mxCell id="v55RfGFPw0-nptX2fq-p-74" value="10.250.32.97" style="shape=umlFrame;whiteSpace=wrap;html=1;width=120;height=30;boundedLbl=1;verticalAlign=middle;align=left;spacingLeft=5;rounded=0;strokeColor=#457B9D;fillColor=#A8DADC;sketch=1;fontStyle=1;fontSize=16;fontColor=#1D3557;" parent="1" vertex="1">
          <mxGeometry x="-647" y="230" width="180" height="120" as="geometry" />
        </mxCell>
        <mxCell id="v55RfGFPw0-nptX2fq-p-75" value="10.250.32.98" style="shape=umlFrame;whiteSpace=wrap;html=1;width=120;height=30;boundedLbl=1;verticalAlign=middle;align=left;spacingLeft=5;rounded=0;strokeColor=#457B9D;fillColor=#A8DADC;sketch=1;fontStyle=1;fontSize=16;fontColor=#1D3557;" parent="1" vertex="1">
          <mxGeometry x="-650" y="480" width="183" height="110" as="geometry" />
        </mxCell>
        <object label="节点拓扑" id="v55RfGFPw0-nptX2fq-p-1">
          <mxCell parent="0" />
        </object>
        <mxCell id="v55RfGFPw0-nptX2fq-p-20" value="" style="html=1;dashed=0;whitespace=wrap;fillColor=#A8DADC;strokeColor=#457B9D;points=[[0.005,0.63,0],[0.1,0.2,0],[0.9,0.2,0],[0.5,0,0],[0.995,0.63,0],[0.72,0.99,0],[0.5,1,0],[0.28,0.99,0]];shape=mxgraph.kubernetes.icon;prIcon=kubelet;rounded=0;sketch=0;fontSize=16;fontColor=#1D3557;fontStyle=1" parent="v55RfGFPw0-nptX2fq-p-1" vertex="1">
          <mxGeometry x="108" y="120" width="60" height="60" as="geometry" />
        </mxCell>
        <mxCell id="v55RfGFPw0-nptX2fq-p-21" value="" style="html=1;dashed=0;whitespace=wrap;fillColor=#A8DADC;strokeColor=#457B9D;points=[[0.005,0.63,0],[0.1,0.2,0],[0.9,0.2,0],[0.5,0,0],[0.995,0.63,0],[0.72,0.99,0],[0.5,1,0],[0.28,0.99,0]];shape=mxgraph.kubernetes.icon;prIcon=k_proxy;rounded=0;sketch=0;fontSize=16;fontColor=#1D3557;fontStyle=1" parent="v55RfGFPw0-nptX2fq-p-1" vertex="1">
          <mxGeometry x="108" y="200" width="60" height="58" as="geometry" />
        </mxCell>
        <mxCell id="v55RfGFPw0-nptX2fq-p-22" value="" style="html=1;dashed=0;whitespace=wrap;fillColor=#A8DADC;strokeColor=#457B9D;points=[[0.005,0.63,0],[0.1,0.2,0],[0.9,0.2,0],[0.5,0,0],[0.995,0.63,0],[0.72,0.99,0],[0.5,1,0],[0.28,0.99,0]];shape=mxgraph.kubernetes.icon;prIcon=pod;rounded=0;sketch=0;fontSize=16;fontColor=#1D3557;fontStyle=1" parent="v55RfGFPw0-nptX2fq-p-1" vertex="1">
          <mxGeometry x="234" y="110" width="50" height="48" as="geometry" />
        </mxCell>
        <mxCell id="v55RfGFPw0-nptX2fq-p-23" value="" style="html=1;dashed=0;whitespace=wrap;fillColor=#A8DADC;strokeColor=#457B9D;points=[[0.005,0.63,0],[0.1,0.2,0],[0.9,0.2,0],[0.5,0,0],[0.995,0.63,0],[0.72,0.99,0],[0.5,1,0],[0.28,0.99,0]];shape=mxgraph.kubernetes.icon;prIcon=pod;rounded=0;sketch=0;fontSize=16;fontColor=#1D3557;fontStyle=1" parent="v55RfGFPw0-nptX2fq-p-1" vertex="1">
          <mxGeometry x="234" y="170" width="50" height="48" as="geometry" />
        </mxCell>
        <mxCell id="v55RfGFPw0-nptX2fq-p-24" value="" style="html=1;dashed=0;whitespace=wrap;fillColor=#A8DADC;strokeColor=#457B9D;points=[[0.005,0.63,0],[0.1,0.2,0],[0.9,0.2,0],[0.5,0,0],[0.995,0.63,0],[0.72,0.99,0],[0.5,1,0],[0.28,0.99,0]];shape=mxgraph.kubernetes.icon;prIcon=pod;rounded=0;sketch=0;fontSize=16;fontColor=#1D3557;fontStyle=1" parent="v55RfGFPw0-nptX2fq-p-1" vertex="1">
          <mxGeometry x="234" y="230" width="50" height="48" as="geometry" />
        </mxCell>
        <mxCell id="v55RfGFPw0-nptX2fq-p-27" value="" style="endArrow=classic;html=1;fillColor=#A8DADC;fontSize=16;fontColor=#1D3557;exitX=0.995;exitY=0.63;exitDx=0;exitDy=0;exitPerimeter=0;entryX=0.005;entryY=0.63;entryDx=0;entryDy=0;entryPerimeter=0;sketch=0;strokeColor=#457B9D;labelBackgroundColor=#F1FAEE;fontStyle=1" parent="v55RfGFPw0-nptX2fq-p-1" source="v55RfGFPw0-nptX2fq-p-20" target="v55RfGFPw0-nptX2fq-p-23" edge="1">
          <mxGeometry width="50" height="50" relative="1" as="geometry">
            <mxPoint x="184" y="158" as="sourcePoint" />
            <mxPoint x="-66" y="340" as="targetPoint" />
          </mxGeometry>
        </mxCell>
        <mxCell id="v55RfGFPw0-nptX2fq-p-28" value="" style="endArrow=classic;html=1;fillColor=#A8DADC;fontSize=16;fontColor=#1D3557;exitX=0.995;exitY=0.63;exitDx=0;exitDy=0;exitPerimeter=0;sketch=0;strokeColor=#457B9D;labelBackgroundColor=#F1FAEE;fontStyle=1" parent="v55RfGFPw0-nptX2fq-p-1" source="v55RfGFPw0-nptX2fq-p-20" edge="1">
          <mxGeometry width="50" height="50" relative="1" as="geometry">
            <mxPoint x="193.69999999999982" y="167.80000000000007" as="sourcePoint" />
            <mxPoint x="234" y="142" as="targetPoint" />
          </mxGeometry>
        </mxCell>
        <mxCell id="v55RfGFPw0-nptX2fq-p-29" value="" style="endArrow=classic;html=1;fillColor=#A8DADC;fontSize=16;fontColor=#1D3557;exitX=0.995;exitY=0.63;exitDx=0;exitDy=0;exitPerimeter=0;entryX=0.005;entryY=0.63;entryDx=0;entryDy=0;entryPerimeter=0;sketch=0;strokeColor=#457B9D;labelBackgroundColor=#F1FAEE;fontStyle=1" parent="v55RfGFPw0-nptX2fq-p-1" source="v55RfGFPw0-nptX2fq-p-20" target="v55RfGFPw0-nptX2fq-p-24" edge="1">
          <mxGeometry width="50" height="50" relative="1" as="geometry">
            <mxPoint x="193.69999999999982" y="167.80000000000007" as="sourcePoint" />
            <mxPoint x="244" y="151.90172642762286" as="targetPoint" />
          </mxGeometry>
        </mxCell>
        <mxCell id="v55RfGFPw0-nptX2fq-p-31" value="" style="endArrow=classic;html=1;fillColor=#A8DADC;fontSize=16;fontColor=#1D3557;exitX=0.995;exitY=0.63;exitDx=0;exitDy=0;exitPerimeter=0;entryX=0.005;entryY=0.63;entryDx=0;entryDy=0;entryPerimeter=0;sketch=0;strokeColor=#457B9D;labelBackgroundColor=#F1FAEE;fontStyle=1" parent="v55RfGFPw0-nptX2fq-p-1" source="v55RfGFPw0-nptX2fq-p-21" target="v55RfGFPw0-nptX2fq-p-22" edge="1">
          <mxGeometry width="50" height="50" relative="1" as="geometry">
            <mxPoint x="193.69999999999982" y="167.80000000000007" as="sourcePoint" />
            <mxPoint x="244" y="152" as="targetPoint" />
          </mxGeometry>
        </mxCell>
        <mxCell id="v55RfGFPw0-nptX2fq-p-32" value="" style="endArrow=classic;html=1;fillColor=#A8DADC;fontSize=16;fontColor=#1D3557;exitX=0.995;exitY=0.63;exitDx=0;exitDy=0;exitPerimeter=0;entryX=0.005;entryY=0.63;entryDx=0;entryDy=0;entryPerimeter=0;sketch=0;strokeColor=#457B9D;labelBackgroundColor=#F1FAEE;fontStyle=1" parent="v55RfGFPw0-nptX2fq-p-1" source="v55RfGFPw0-nptX2fq-p-21" target="v55RfGFPw0-nptX2fq-p-23" edge="1">
          <mxGeometry width="50" height="50" relative="1" as="geometry">
            <mxPoint x="183.69999999999982" y="246.53999999999996" as="sourcePoint" />
            <mxPoint x="244.25" y="150.24" as="targetPoint" />
          </mxGeometry>
        </mxCell>
        <mxCell id="v55RfGFPw0-nptX2fq-p-33" value="" style="endArrow=classic;html=1;fillColor=#A8DADC;fontSize=16;fontColor=#1D3557;exitX=0.995;exitY=0.63;exitDx=0;exitDy=0;exitPerimeter=0;entryX=0.005;entryY=0.63;entryDx=0;entryDy=0;entryPerimeter=0;sketch=0;strokeColor=#457B9D;labelBackgroundColor=#F1FAEE;fontStyle=1" parent="v55RfGFPw0-nptX2fq-p-1" source="v55RfGFPw0-nptX2fq-p-21" target="v55RfGFPw0-nptX2fq-p-24" edge="1">
          <mxGeometry width="50" height="50" relative="1" as="geometry">
            <mxPoint x="177.69999999999982" y="167.80000000000007" as="sourcePoint" />
            <mxPoint x="244.25" y="210.24" as="targetPoint" />
          </mxGeometry>
        </mxCell>
        <mxCell id="v55RfGFPw0-nptX2fq-p-39" value="" style="html=1;dashed=0;whitespace=wrap;fillColor=#A8DADC;strokeColor=#457B9D;points=[[0.005,0.63,0],[0.1,0.2,0],[0.9,0.2,0],[0.5,0,0],[0.995,0.63,0],[0.72,0.99,0],[0.5,1,0],[0.28,0.99,0]];shape=mxgraph.kubernetes.icon;prIcon=kubelet;rounded=0;sketch=0;fontSize=16;fontColor=#1D3557;fontStyle=1" parent="v55RfGFPw0-nptX2fq-p-1" vertex="1">
          <mxGeometry x="108" y="390" width="60" height="60" as="geometry" />
        </mxCell>
        <mxCell id="v55RfGFPw0-nptX2fq-p-40" value="" style="html=1;dashed=0;whitespace=wrap;fillColor=#A8DADC;strokeColor=#457B9D;points=[[0.005,0.63,0],[0.1,0.2,0],[0.9,0.2,0],[0.5,0,0],[0.995,0.63,0],[0.72,0.99,0],[0.5,1,0],[0.28,0.99,0]];shape=mxgraph.kubernetes.icon;prIcon=k_proxy;rounded=0;sketch=0;fontSize=16;fontColor=#1D3557;fontStyle=1" parent="v55RfGFPw0-nptX2fq-p-1" vertex="1">
          <mxGeometry x="108" y="470" width="60" height="58" as="geometry" />
        </mxCell>
        <mxCell id="v55RfGFPw0-nptX2fq-p-41" value="" style="html=1;dashed=0;whitespace=wrap;fillColor=#A8DADC;strokeColor=#457B9D;points=[[0.005,0.63,0],[0.1,0.2,0],[0.9,0.2,0],[0.5,0,0],[0.995,0.63,0],[0.72,0.99,0],[0.5,1,0],[0.28,0.99,0]];shape=mxgraph.kubernetes.icon;prIcon=pod;rounded=0;sketch=0;fontSize=16;fontColor=#1D3557;fontStyle=1" parent="v55RfGFPw0-nptX2fq-p-1" vertex="1">
          <mxGeometry x="234" y="380" width="50" height="48" as="geometry" />
        </mxCell>
        <mxCell id="v55RfGFPw0-nptX2fq-p-42" value="" style="html=1;dashed=0;whitespace=wrap;fillColor=#A8DADC;strokeColor=#457B9D;points=[[0.005,0.63,0],[0.1,0.2,0],[0.9,0.2,0],[0.5,0,0],[0.995,0.63,0],[0.72,0.99,0],[0.5,1,0],[0.28,0.99,0]];shape=mxgraph.kubernetes.icon;prIcon=pod;rounded=0;sketch=0;fontSize=16;fontColor=#1D3557;fontStyle=1" parent="v55RfGFPw0-nptX2fq-p-1" vertex="1">
          <mxGeometry x="234" y="440" width="50" height="48" as="geometry" />
        </mxCell>
        <mxCell id="v55RfGFPw0-nptX2fq-p-43" value="" style="html=1;dashed=0;whitespace=wrap;fillColor=#A8DADC;strokeColor=#457B9D;points=[[0.005,0.63,0],[0.1,0.2,0],[0.9,0.2,0],[0.5,0,0],[0.995,0.63,0],[0.72,0.99,0],[0.5,1,0],[0.28,0.99,0]];shape=mxgraph.kubernetes.icon;prIcon=pod;rounded=0;sketch=0;fontSize=16;fontColor=#1D3557;fontStyle=1" parent="v55RfGFPw0-nptX2fq-p-1" vertex="1">
          <mxGeometry x="234" y="500" width="50" height="48" as="geometry" />
        </mxCell>
        <mxCell id="v55RfGFPw0-nptX2fq-p-44" value="" style="endArrow=classic;html=1;fillColor=#A8DADC;fontSize=16;fontColor=#1D3557;exitX=0.995;exitY=0.63;exitDx=0;exitDy=0;exitPerimeter=0;entryX=0.005;entryY=0.63;entryDx=0;entryDy=0;entryPerimeter=0;sketch=0;strokeColor=#457B9D;labelBackgroundColor=#F1FAEE;fontStyle=1" parent="v55RfGFPw0-nptX2fq-p-1" source="v55RfGFPw0-nptX2fq-p-39" target="v55RfGFPw0-nptX2fq-p-42" edge="1">
          <mxGeometry width="50" height="50" relative="1" as="geometry">
            <mxPoint x="184" y="428" as="sourcePoint" />
            <mxPoint x="-66" y="610" as="targetPoint" />
          </mxGeometry>
        </mxCell>
        <mxCell id="v55RfGFPw0-nptX2fq-p-45" value="" style="endArrow=classic;html=1;fillColor=#A8DADC;fontSize=16;fontColor=#1D3557;exitX=0.995;exitY=0.63;exitDx=0;exitDy=0;exitPerimeter=0;sketch=0;strokeColor=#457B9D;labelBackgroundColor=#F1FAEE;fontStyle=1" parent="v55RfGFPw0-nptX2fq-p-1" source="v55RfGFPw0-nptX2fq-p-39" edge="1">
          <mxGeometry width="50" height="50" relative="1" as="geometry">
            <mxPoint x="193.69999999999982" y="437.80000000000007" as="sourcePoint" />
            <mxPoint x="234" y="412" as="targetPoint" />
          </mxGeometry>
        </mxCell>
        <mxCell id="v55RfGFPw0-nptX2fq-p-46" value="" style="endArrow=classic;html=1;fillColor=#A8DADC;fontSize=16;fontColor=#1D3557;exitX=0.995;exitY=0.63;exitDx=0;exitDy=0;exitPerimeter=0;entryX=0.005;entryY=0.63;entryDx=0;entryDy=0;entryPerimeter=0;sketch=0;strokeColor=#457B9D;labelBackgroundColor=#F1FAEE;fontStyle=1" parent="v55RfGFPw0-nptX2fq-p-1" source="v55RfGFPw0-nptX2fq-p-39" target="v55RfGFPw0-nptX2fq-p-43" edge="1">
          <mxGeometry width="50" height="50" relative="1" as="geometry">
            <mxPoint x="193.69999999999982" y="437.80000000000007" as="sourcePoint" />
            <mxPoint x="244" y="421.90172642762286" as="targetPoint" />
          </mxGeometry>
        </mxCell>
        <mxCell id="v55RfGFPw0-nptX2fq-p-47" value="" style="endArrow=classic;html=1;fillColor=#A8DADC;fontSize=16;fontColor=#1D3557;exitX=0.995;exitY=0.63;exitDx=0;exitDy=0;exitPerimeter=0;entryX=0.005;entryY=0.63;entryDx=0;entryDy=0;entryPerimeter=0;sketch=0;strokeColor=#457B9D;labelBackgroundColor=#F1FAEE;fontStyle=1" parent="v55RfGFPw0-nptX2fq-p-1" source="v55RfGFPw0-nptX2fq-p-40" target="v55RfGFPw0-nptX2fq-p-41" edge="1">
          <mxGeometry width="50" height="50" relative="1" as="geometry">
            <mxPoint x="193.69999999999982" y="437.80000000000007" as="sourcePoint" />
            <mxPoint x="244" y="422" as="targetPoint" />
          </mxGeometry>
        </mxCell>
        <mxCell id="v55RfGFPw0-nptX2fq-p-48" value="" style="endArrow=classic;html=1;fillColor=#A8DADC;fontSize=16;fontColor=#1D3557;exitX=0.995;exitY=0.63;exitDx=0;exitDy=0;exitPerimeter=0;entryX=0.005;entryY=0.63;entryDx=0;entryDy=0;entryPerimeter=0;sketch=0;strokeColor=#457B9D;labelBackgroundColor=#F1FAEE;fontStyle=1" parent="v55RfGFPw0-nptX2fq-p-1" source="v55RfGFPw0-nptX2fq-p-40" target="v55RfGFPw0-nptX2fq-p-42" edge="1">
          <mxGeometry width="50" height="50" relative="1" as="geometry">
            <mxPoint x="183.69999999999982" y="516.54" as="sourcePoint" />
            <mxPoint x="244.25" y="420.24" as="targetPoint" />
          </mxGeometry>
        </mxCell>
        <mxCell id="v55RfGFPw0-nptX2fq-p-49" value="" style="endArrow=classic;html=1;fillColor=#A8DADC;fontSize=16;fontColor=#1D3557;exitX=0.995;exitY=0.63;exitDx=0;exitDy=0;exitPerimeter=0;entryX=0.005;entryY=0.63;entryDx=0;entryDy=0;entryPerimeter=0;sketch=0;strokeColor=#457B9D;labelBackgroundColor=#F1FAEE;fontStyle=1" parent="v55RfGFPw0-nptX2fq-p-1" source="v55RfGFPw0-nptX2fq-p-40" target="v55RfGFPw0-nptX2fq-p-43" edge="1">
          <mxGeometry width="50" height="50" relative="1" as="geometry">
            <mxPoint x="177.69999999999982" y="437.80000000000007" as="sourcePoint" />
            <mxPoint x="244.25" y="480.24" as="targetPoint" />
          </mxGeometry>
        </mxCell>
        <mxCell id="v55RfGFPw0-nptX2fq-p-50" value="" style="html=1;dashed=0;whitespace=wrap;fillColor=#A8DADC;strokeColor=#457B9D;points=[[0.005,0.63,0],[0.1,0.2,0],[0.9,0.2,0],[0.5,0,0],[0.995,0.63,0],[0.72,0.99,0],[0.5,1,0],[0.28,0.99,0]];shape=mxgraph.kubernetes.icon;prIcon=kubelet;rounded=0;sketch=0;fontSize=16;fontColor=#1D3557;fontStyle=1" parent="v55RfGFPw0-nptX2fq-p-1" vertex="1">
          <mxGeometry x="108" y="660" width="60" height="60" as="geometry" />
        </mxCell>
        <mxCell id="v55RfGFPw0-nptX2fq-p-51" value="" style="html=1;dashed=0;whitespace=wrap;fillColor=#A8DADC;strokeColor=#457B9D;points=[[0.005,0.63,0],[0.1,0.2,0],[0.9,0.2,0],[0.5,0,0],[0.995,0.63,0],[0.72,0.99,0],[0.5,1,0],[0.28,0.99,0]];shape=mxgraph.kubernetes.icon;prIcon=k_proxy;rounded=0;sketch=0;fontSize=16;fontColor=#1D3557;fontStyle=1" parent="v55RfGFPw0-nptX2fq-p-1" vertex="1">
          <mxGeometry x="108" y="740" width="60" height="58" as="geometry" />
        </mxCell>
        <mxCell id="v55RfGFPw0-nptX2fq-p-52" value="" style="html=1;dashed=0;whitespace=wrap;fillColor=#A8DADC;strokeColor=#457B9D;points=[[0.005,0.63,0],[0.1,0.2,0],[0.9,0.2,0],[0.5,0,0],[0.995,0.63,0],[0.72,0.99,0],[0.5,1,0],[0.28,0.99,0]];shape=mxgraph.kubernetes.icon;prIcon=pod;rounded=0;sketch=0;fontSize=16;fontColor=#1D3557;fontStyle=1" parent="v55RfGFPw0-nptX2fq-p-1" vertex="1">
          <mxGeometry x="234" y="650" width="50" height="48" as="geometry" />
        </mxCell>
        <mxCell id="v55RfGFPw0-nptX2fq-p-53" value="" style="html=1;dashed=0;whitespace=wrap;fillColor=#A8DADC;strokeColor=#457B9D;points=[[0.005,0.63,0],[0.1,0.2,0],[0.9,0.2,0],[0.5,0,0],[0.995,0.63,0],[0.72,0.99,0],[0.5,1,0],[0.28,0.99,0]];shape=mxgraph.kubernetes.icon;prIcon=pod;rounded=0;sketch=0;fontSize=16;fontColor=#1D3557;fontStyle=1" parent="v55RfGFPw0-nptX2fq-p-1" vertex="1">
          <mxGeometry x="234" y="710" width="50" height="48" as="geometry" />
        </mxCell>
        <mxCell id="v55RfGFPw0-nptX2fq-p-54" value="" style="html=1;dashed=0;whitespace=wrap;fillColor=#A8DADC;strokeColor=#457B9D;points=[[0.005,0.63,0],[0.1,0.2,0],[0.9,0.2,0],[0.5,0,0],[0.995,0.63,0],[0.72,0.99,0],[0.5,1,0],[0.28,0.99,0]];shape=mxgraph.kubernetes.icon;prIcon=pod;rounded=0;sketch=0;fontSize=16;fontColor=#1D3557;fontStyle=1" parent="v55RfGFPw0-nptX2fq-p-1" vertex="1">
          <mxGeometry x="234" y="770" width="50" height="48" as="geometry" />
        </mxCell>
        <mxCell id="v55RfGFPw0-nptX2fq-p-55" value="" style="endArrow=classic;html=1;fillColor=#A8DADC;fontSize=16;fontColor=#1D3557;exitX=0.995;exitY=0.63;exitDx=0;exitDy=0;exitPerimeter=0;entryX=0.005;entryY=0.63;entryDx=0;entryDy=0;entryPerimeter=0;sketch=0;strokeColor=#457B9D;labelBackgroundColor=#F1FAEE;fontStyle=1" parent="v55RfGFPw0-nptX2fq-p-1" source="v55RfGFPw0-nptX2fq-p-50" target="v55RfGFPw0-nptX2fq-p-53" edge="1">
          <mxGeometry width="50" height="50" relative="1" as="geometry">
            <mxPoint x="184" y="698" as="sourcePoint" />
            <mxPoint x="-66" y="880" as="targetPoint" />
          </mxGeometry>
        </mxCell>
        <mxCell id="v55RfGFPw0-nptX2fq-p-56" value="" style="endArrow=classic;html=1;fillColor=#A8DADC;fontSize=16;fontColor=#1D3557;exitX=0.995;exitY=0.63;exitDx=0;exitDy=0;exitPerimeter=0;sketch=0;strokeColor=#457B9D;labelBackgroundColor=#F1FAEE;fontStyle=1" parent="v55RfGFPw0-nptX2fq-p-1" source="v55RfGFPw0-nptX2fq-p-50" edge="1">
          <mxGeometry width="50" height="50" relative="1" as="geometry">
            <mxPoint x="193.69999999999982" y="707.8000000000001" as="sourcePoint" />
            <mxPoint x="234" y="682" as="targetPoint" />
          </mxGeometry>
        </mxCell>
        <mxCell id="v55RfGFPw0-nptX2fq-p-57" value="" style="endArrow=classic;html=1;fillColor=#A8DADC;fontSize=16;fontColor=#1D3557;exitX=0.995;exitY=0.63;exitDx=0;exitDy=0;exitPerimeter=0;entryX=0.005;entryY=0.63;entryDx=0;entryDy=0;entryPerimeter=0;sketch=0;strokeColor=#457B9D;labelBackgroundColor=#F1FAEE;fontStyle=1" parent="v55RfGFPw0-nptX2fq-p-1" source="v55RfGFPw0-nptX2fq-p-50" target="v55RfGFPw0-nptX2fq-p-54" edge="1">
          <mxGeometry width="50" height="50" relative="1" as="geometry">
            <mxPoint x="193.69999999999982" y="707.8000000000001" as="sourcePoint" />
            <mxPoint x="244" y="691.9017264276229" as="targetPoint" />
          </mxGeometry>
        </mxCell>
        <mxCell id="v55RfGFPw0-nptX2fq-p-58" value="" style="endArrow=classic;html=1;fillColor=#A8DADC;fontSize=16;fontColor=#1D3557;exitX=0.995;exitY=0.63;exitDx=0;exitDy=0;exitPerimeter=0;entryX=0.005;entryY=0.63;entryDx=0;entryDy=0;entryPerimeter=0;sketch=0;strokeColor=#457B9D;labelBackgroundColor=#F1FAEE;fontStyle=1" parent="v55RfGFPw0-nptX2fq-p-1" source="v55RfGFPw0-nptX2fq-p-51" target="v55RfGFPw0-nptX2fq-p-52" edge="1">
          <mxGeometry width="50" height="50" relative="1" as="geometry">
            <mxPoint x="193.69999999999982" y="707.8000000000001" as="sourcePoint" />
            <mxPoint x="244" y="692" as="targetPoint" />
          </mxGeometry>
        </mxCell>
        <mxCell id="v55RfGFPw0-nptX2fq-p-59" value="" style="endArrow=classic;html=1;fillColor=#A8DADC;fontSize=16;fontColor=#1D3557;exitX=0.995;exitY=0.63;exitDx=0;exitDy=0;exitPerimeter=0;entryX=0.005;entryY=0.63;entryDx=0;entryDy=0;entryPerimeter=0;sketch=0;strokeColor=#457B9D;labelBackgroundColor=#F1FAEE;fontStyle=1" parent="v55RfGFPw0-nptX2fq-p-1" source="v55RfGFPw0-nptX2fq-p-51" target="v55RfGFPw0-nptX2fq-p-53" edge="1">
          <mxGeometry width="50" height="50" relative="1" as="geometry">
            <mxPoint x="183.69999999999982" y="786.54" as="sourcePoint" />
            <mxPoint x="244.25" y="690.24" as="targetPoint" />
          </mxGeometry>
        </mxCell>
        <mxCell id="v55RfGFPw0-nptX2fq-p-60" value="" style="endArrow=classic;html=1;fillColor=#A8DADC;fontSize=16;fontColor=#1D3557;exitX=0.995;exitY=0.63;exitDx=0;exitDy=0;exitPerimeter=0;entryX=0.005;entryY=0.63;entryDx=0;entryDy=0;entryPerimeter=0;sketch=0;strokeColor=#457B9D;labelBackgroundColor=#F1FAEE;fontStyle=1" parent="v55RfGFPw0-nptX2fq-p-1" source="v55RfGFPw0-nptX2fq-p-51" target="v55RfGFPw0-nptX2fq-p-54" edge="1">
          <mxGeometry width="50" height="50" relative="1" as="geometry">
            <mxPoint x="177.69999999999982" y="707.8000000000001" as="sourcePoint" />
            <mxPoint x="244.25" y="750.24" as="targetPoint" />
          </mxGeometry>
        </mxCell>
        <mxCell id="v55RfGFPw0-nptX2fq-p-68" value="etcd" style="html=1;dashed=0;whitespace=wrap;fillColor=#A8DADC;strokeColor=#457B9D;points=[[0.005,0.63,0],[0.1,0.2,0],[0.9,0.2,0],[0.5,0,0],[0.995,0.63,0],[0.72,0.99,0],[0.5,1,0],[0.28,0.99,0]];shape=mxgraph.kubernetes.icon;prIcon=etcd;rounded=0;sketch=0;fontSize=16;labelBorderColor=none;labelBackgroundColor=#71C1DE;fontStyle=1;fontColor=#FF0000;" parent="v55RfGFPw0-nptX2fq-p-1" vertex="1">
          <mxGeometry x="-157" y="632" width="50" height="48" as="geometry" />
        </mxCell>
        <mxCell id="v55RfGFPw0-nptX2fq-p-69" value="etcd" style="html=1;dashed=0;whitespace=wrap;fillColor=#A8DADC;strokeColor=#457B9D;points=[[0.005,0.63,0],[0.1,0.2,0],[0.9,0.2,0],[0.5,0,0],[0.995,0.63,0],[0.72,0.99,0],[0.5,1,0],[0.28,0.99,0]];shape=mxgraph.kubernetes.icon;prIcon=etcd;rounded=0;sketch=0;fontSize=16;labelBorderColor=none;labelBackgroundColor=#71C1DE;fontStyle=1;fontColor=#FF0000;" parent="v55RfGFPw0-nptX2fq-p-1" vertex="1">
          <mxGeometry x="-157" y="190" width="50" height="48" as="geometry" />
        </mxCell>
        <mxCell id="v55RfGFPw0-nptX2fq-p-71" value="Harbor" style="shape=datastore;whiteSpace=wrap;html=1;rounded=0;sketch=0;strokeColor=#457B9D;fillColor=#A8DADC;fontColor=#1D3557;fontStyle=1" parent="v55RfGFPw0-nptX2fq-p-1" vertex="1">
          <mxGeometry x="467" y="130" width="60" height="60" as="geometry" />
        </mxCell>
        <mxCell id="v55RfGFPw0-nptX2fq-p-72" value="DNS" style="ellipse;shape=cloud;whiteSpace=wrap;html=1;rounded=0;sketch=0;strokeColor=#457B9D;fillColor=#A8DADC;fontColor=#1D3557;fontStyle=1" parent="v55RfGFPw0-nptX2fq-p-1" vertex="1">
          <mxGeometry x="470" y="210" width="60" height="50" as="geometry" />
        </mxCell>
        <mxCell id="v55RfGFPw0-nptX2fq-p-73" value="etcd" style="html=1;dashed=0;whitespace=wrap;fillColor=#A8DADC;strokeColor=#457B9D;points=[[0.005,0.63,0],[0.1,0.2,0],[0.9,0.2,0],[0.5,0,0],[0.995,0.63,0],[0.72,0.99,0],[0.5,1,0],[0.28,0.99,0]];shape=mxgraph.kubernetes.icon;prIcon=etcd;rounded=0;sketch=0;fontSize=16;labelBorderColor=none;labelBackgroundColor=#71C1DE;fontStyle=1;fontColor=#FF0000;" parent="v55RfGFPw0-nptX2fq-p-1" vertex="1">
          <mxGeometry x="300" y="90" width="50" height="48" as="geometry" />
        </mxCell>
        <mxCell id="v55RfGFPw0-nptX2fq-p-76" value="&lt;font style=&quot;font-size: 15px&quot;&gt;etcd&lt;br&gt;&lt;/font&gt;&lt;div style=&quot;font-size: 15px&quot;&gt;&lt;font style=&quot;font-size: 15px&quot;&gt;learn&lt;/font&gt;&lt;/div&gt;" style="html=1;dashed=0;whitespace=wrap;fillColor=#A8DADC;strokeColor=#457B9D;points=[[0.005,0.63,0],[0.1,0.2,0],[0.9,0.2,0],[0.5,0,0],[0.995,0.63,0],[0.72,0.99,0],[0.5,1,0],[0.28,0.99,0]];shape=mxgraph.kubernetes.icon;prIcon=etcd;rounded=0;sketch=0;fontSize=16;labelBorderColor=none;labelBackgroundColor=#71C1DE;fontStyle=1;fontColor=#006600;" parent="v55RfGFPw0-nptX2fq-p-1" vertex="1">
          <mxGeometry x="-600" y="30" width="50" height="48" as="geometry" />
        </mxCell>
        <mxCell id="v55RfGFPw0-nptX2fq-p-112" style="edgeStyle=orthogonalEdgeStyle;curved=0;rounded=1;sketch=0;orthogonalLoop=1;jettySize=auto;html=1;exitX=1;exitY=0.5;exitDx=0;exitDy=0;strokeColor=#457B9D;fillColor=#A8DADC;fontSize=15;fontColor=#003366;fontStyle=1" parent="v55RfGFPw0-nptX2fq-p-1" source="v55RfGFPw0-nptX2fq-p-113" target="v55RfGFPw0-nptX2fq-p-119" edge="1">
          <mxGeometry relative="1" as="geometry" />
        </mxCell>
        <mxCell id="v55RfGFPw0-nptX2fq-p-113" value="&lt;div&gt;scheduler&lt;/div&gt;" style="rounded=0;whiteSpace=wrap;html=1;labelBackgroundColor=none;sketch=1;strokeColor=#457B9D;fillColor=#A8DADC;fontSize=17;fontColor=#003366;fontStyle=1" parent="v55RfGFPw0-nptX2fq-p-1" vertex="1">
          <mxGeometry x="-407" y="220" width="80" height="30" as="geometry" />
        </mxCell>
        <mxCell id="v55RfGFPw0-nptX2fq-p-114" style="edgeStyle=orthogonalEdgeStyle;curved=0;rounded=1;sketch=0;orthogonalLoop=1;jettySize=auto;html=1;exitX=1;exitY=0.5;exitDx=0;exitDy=0;strokeColor=#457B9D;fillColor=#A8DADC;fontSize=15;fontColor=#003366;fontStyle=1" parent="v55RfGFPw0-nptX2fq-p-1" source="v55RfGFPw0-nptX2fq-p-115" target="v55RfGFPw0-nptX2fq-p-119" edge="1">
          <mxGeometry relative="1" as="geometry" />
        </mxCell>
        <mxCell id="v55RfGFPw0-nptX2fq-p-115" value="Controller-manager" style="rounded=0;whiteSpace=wrap;html=1;labelBackgroundColor=none;sketch=1;strokeColor=#457B9D;fillColor=#A8DADC;fontSize=15;fontColor=#003366;fontFamily=Helvetica;fontStyle=1" parent="v55RfGFPw0-nptX2fq-p-1" vertex="1">
          <mxGeometry x="-407" y="260" width="80" height="40" as="geometry" />
        </mxCell>
        <mxCell id="v55RfGFPw0-nptX2fq-p-116" style="edgeStyle=orthogonalEdgeStyle;curved=0;rounded=1;sketch=0;orthogonalLoop=1;jettySize=auto;html=1;exitX=0.5;exitY=0;exitDx=0;exitDy=0;entryX=1;entryY=0.5;entryDx=0;entryDy=0;strokeColor=#457B9D;fillColor=#A8DADC;fontSize=15;fontColor=#003366;fontStyle=1" parent="v55RfGFPw0-nptX2fq-p-1" source="v55RfGFPw0-nptX2fq-p-117" target="v55RfGFPw0-nptX2fq-p-120" edge="1">
          <mxGeometry relative="1" as="geometry" />
        </mxCell>
        <mxCell id="v55RfGFPw0-nptX2fq-p-117" value="kubectl" style="rounded=0;whiteSpace=wrap;html=1;labelBackgroundColor=none;sketch=1;strokeColor=#457B9D;fillColor=#A8DADC;fontSize=15;fontColor=#003366;fontStyle=1" parent="v55RfGFPw0-nptX2fq-p-1" vertex="1">
          <mxGeometry x="-177" y="320" width="70" height="30" as="geometry" />
        </mxCell>
        <mxCell id="v55RfGFPw0-nptX2fq-p-118" value="" style="group;fontStyle=1" parent="v55RfGFPw0-nptX2fq-p-1" vertex="1" connectable="0">
          <mxGeometry x="-277" y="230" width="100" height="60" as="geometry" />
        </mxCell>
        <mxCell id="v55RfGFPw0-nptX2fq-p-119" value="API Server" style="rounded=0;whiteSpace=wrap;html=1;labelBackgroundColor=none;sketch=1;strokeColor=#457B9D;fillColor=#A8DADC;fontSize=15;fontColor=#003366;fontStyle=1" parent="v55RfGFPw0-nptX2fq-p-118" vertex="1">
          <mxGeometry width="100" height="40" as="geometry" />
        </mxCell>
        <mxCell id="v55RfGFPw0-nptX2fq-p-120" value="Auth" style="rounded=0;whiteSpace=wrap;html=1;labelBackgroundColor=none;sketch=1;strokeColor=#457B9D;fillColor=#A8DADC;fontSize=15;fontColor=#003366;fontStyle=1" parent="v55RfGFPw0-nptX2fq-p-118" vertex="1">
          <mxGeometry x="60" y="40" width="40" height="20" as="geometry" />
        </mxCell>
        <mxCell id="v55RfGFPw0-nptX2fq-p-121" style="edgeStyle=orthogonalEdgeStyle;curved=0;rounded=1;sketch=0;orthogonalLoop=1;jettySize=auto;html=1;exitX=1;exitY=0.5;exitDx=0;exitDy=0;strokeColor=#457B9D;fillColor=#A8DADC;fontSize=15;fontColor=#003366;fontStyle=1;entryX=0;entryY=0.5;entryDx=0;entryDy=0;" parent="v55RfGFPw0-nptX2fq-p-1" source="v55RfGFPw0-nptX2fq-p-122" target="kWyG1EHQ2O0DTTXShW4T-6" edge="1">
          <mxGeometry relative="1" as="geometry">
            <Array as="points">
              <mxPoint x="-310" y="585" />
              <mxPoint x="-310" y="612" />
            </Array>
          </mxGeometry>
        </mxCell>
        <mxCell id="v55RfGFPw0-nptX2fq-p-122" value="&lt;div&gt;scheduler&lt;/div&gt;" style="rounded=0;whiteSpace=wrap;html=1;labelBackgroundColor=none;sketch=1;strokeColor=#457B9D;fillColor=#A8DADC;fontSize=17;fontColor=#003366;fontStyle=1" parent="v55RfGFPw0-nptX2fq-p-1" vertex="1">
          <mxGeometry x="-407" y="570" width="80" height="30" as="geometry" />
        </mxCell>
        <mxCell id="v55RfGFPw0-nptX2fq-p-123" style="edgeStyle=orthogonalEdgeStyle;curved=0;rounded=1;sketch=0;orthogonalLoop=1;jettySize=auto;html=1;exitX=1;exitY=0.5;exitDx=0;exitDy=0;strokeColor=#457B9D;fillColor=#A8DADC;fontSize=15;fontColor=#003366;fontStyle=1;entryX=0;entryY=0.5;entryDx=0;entryDy=0;" parent="v55RfGFPw0-nptX2fq-p-1" source="v55RfGFPw0-nptX2fq-p-124" target="kWyG1EHQ2O0DTTXShW4T-6" edge="1">
          <mxGeometry relative="1" as="geometry">
            <Array as="points">
              <mxPoint x="-310" y="656" />
              <mxPoint x="-310" y="612" />
            </Array>
          </mxGeometry>
        </mxCell>
        <mxCell id="v55RfGFPw0-nptX2fq-p-124" value="Controller-manager" style="rounded=0;whiteSpace=wrap;html=1;labelBackgroundColor=none;sketch=1;strokeColor=#457B9D;fillColor=#A8DADC;fontSize=15;fontColor=#003366;fontStyle=1" parent="v55RfGFPw0-nptX2fq-p-1" vertex="1">
          <mxGeometry x="-407" y="636" width="80" height="40" as="geometry" />
        </mxCell>
        <mxCell id="v55RfGFPw0-nptX2fq-p-125" style="edgeStyle=orthogonalEdgeStyle;curved=0;rounded=1;sketch=0;orthogonalLoop=1;jettySize=auto;html=1;exitX=0.5;exitY=1;exitDx=0;exitDy=0;entryX=1;entryY=0.5;entryDx=0;entryDy=0;strokeColor=#457B9D;fillColor=#A8DADC;fontSize=15;fontColor=#003366;fontStyle=1" parent="v55RfGFPw0-nptX2fq-p-1" source="v55RfGFPw0-nptX2fq-p-126" target="v55RfGFPw0-nptX2fq-p-129" edge="1">
          <mxGeometry relative="1" as="geometry" />
        </mxCell>
        <mxCell id="v55RfGFPw0-nptX2fq-p-126" value="kubectl" style="rounded=0;whiteSpace=wrap;html=1;labelBackgroundColor=none;sketch=1;strokeColor=#457B9D;fillColor=#A8DADC;fontSize=15;fontColor=#003366;fontStyle=1" parent="v55RfGFPw0-nptX2fq-p-1" vertex="1">
          <mxGeometry x="-177" y="520" width="70" height="30" as="geometry" />
        </mxCell>
        <mxCell id="v55RfGFPw0-nptX2fq-p-131" value="" style="endArrow=classic;startArrow=classic;html=1;strokeColor=#457B9D;fillColor=#A8DADC;fontSize=15;fontColor=#003366;entryX=0.005;entryY=0.63;entryDx=0;entryDy=0;entryPerimeter=0;exitX=1;exitY=0;exitDx=0;exitDy=0;fontStyle=1" parent="v55RfGFPw0-nptX2fq-p-1" source="v55RfGFPw0-nptX2fq-p-119" target="v55RfGFPw0-nptX2fq-p-69" edge="1">
          <mxGeometry width="50" height="50" relative="1" as="geometry">
            <mxPoint x="-287" y="460" as="sourcePoint" />
            <mxPoint x="-237" y="410" as="targetPoint" />
          </mxGeometry>
        </mxCell>
        <mxCell id="v55RfGFPw0-nptX2fq-p-132" value="" style="endArrow=classic;startArrow=classic;html=1;strokeColor=#457B9D;fillColor=#A8DADC;fontSize=15;fontColor=#003366;entryX=0.1;entryY=0.2;entryDx=0;entryDy=0;entryPerimeter=0;exitX=1;exitY=1;exitDx=0;exitDy=0;fontStyle=1" parent="v55RfGFPw0-nptX2fq-p-1" source="kWyG1EHQ2O0DTTXShW4T-6" target="v55RfGFPw0-nptX2fq-p-68" edge="1">
          <mxGeometry width="50" height="50" relative="1" as="geometry">
            <mxPoint x="-77" y="640" as="sourcePoint" />
            <mxPoint x="-27" y="590" as="targetPoint" />
          </mxGeometry>
        </mxCell>
        <mxCell id="v55RfGFPw0-nptX2fq-p-133" style="edgeStyle=orthogonalEdgeStyle;curved=0;rounded=1;sketch=0;orthogonalLoop=1;jettySize=auto;html=1;exitX=1;exitY=0.5;exitDx=0;exitDy=0;entryX=0.005;entryY=0.63;entryDx=0;entryDy=0;entryPerimeter=0;strokeColor=#457B9D;fillColor=#A8DADC;fontSize=15;fontColor=#003366;fontStyle=1" parent="v55RfGFPw0-nptX2fq-p-1" source="v55RfGFPw0-nptX2fq-p-119" target="v55RfGFPw0-nptX2fq-p-20" edge="1">
          <mxGeometry relative="1" as="geometry" />
        </mxCell>
        <mxCell id="v55RfGFPw0-nptX2fq-p-134" style="edgeStyle=orthogonalEdgeStyle;curved=0;rounded=1;sketch=0;orthogonalLoop=1;jettySize=auto;html=1;entryX=0.005;entryY=0.63;entryDx=0;entryDy=0;entryPerimeter=0;strokeColor=#457B9D;fillColor=#A8DADC;fontSize=15;fontColor=#003366;fontStyle=1" parent="v55RfGFPw0-nptX2fq-p-1" source="v55RfGFPw0-nptX2fq-p-119" target="v55RfGFPw0-nptX2fq-p-39" edge="1">
          <mxGeometry relative="1" as="geometry" />
        </mxCell>
        <mxCell id="v55RfGFPw0-nptX2fq-p-135" style="edgeStyle=orthogonalEdgeStyle;curved=0;rounded=1;sketch=0;orthogonalLoop=1;jettySize=auto;html=1;entryX=0.005;entryY=0.63;entryDx=0;entryDy=0;entryPerimeter=0;strokeColor=#457B9D;fillColor=#A8DADC;fontSize=15;fontColor=#003366;fontStyle=1" parent="v55RfGFPw0-nptX2fq-p-1" source="v55RfGFPw0-nptX2fq-p-119" target="v55RfGFPw0-nptX2fq-p-50" edge="1">
          <mxGeometry relative="1" as="geometry" />
        </mxCell>
        <mxCell id="v55RfGFPw0-nptX2fq-p-136" style="edgeStyle=orthogonalEdgeStyle;curved=0;rounded=1;sketch=0;orthogonalLoop=1;jettySize=auto;html=1;entryX=0.005;entryY=0.63;entryDx=0;entryDy=0;entryPerimeter=0;strokeColor=#457B9D;fillColor=#A8DADC;fontSize=15;fontColor=#003366;fontStyle=1;exitX=1;exitY=0.5;exitDx=0;exitDy=0;" parent="v55RfGFPw0-nptX2fq-p-1" source="kWyG1EHQ2O0DTTXShW4T-6" target="v55RfGFPw0-nptX2fq-p-50" edge="1">
          <mxGeometry relative="1" as="geometry" />
        </mxCell>
        <mxCell id="v55RfGFPw0-nptX2fq-p-137" style="edgeStyle=orthogonalEdgeStyle;curved=0;rounded=1;sketch=0;orthogonalLoop=1;jettySize=auto;html=1;entryX=0.005;entryY=0.63;entryDx=0;entryDy=0;entryPerimeter=0;strokeColor=#457B9D;fillColor=#A8DADC;fontSize=15;fontColor=#003366;fontStyle=1;exitX=1;exitY=0.5;exitDx=0;exitDy=0;" parent="v55RfGFPw0-nptX2fq-p-1" source="kWyG1EHQ2O0DTTXShW4T-6" target="v55RfGFPw0-nptX2fq-p-39" edge="1">
          <mxGeometry relative="1" as="geometry" />
        </mxCell>
        <mxCell id="v55RfGFPw0-nptX2fq-p-138" style="edgeStyle=orthogonalEdgeStyle;curved=0;rounded=1;sketch=0;orthogonalLoop=1;jettySize=auto;html=1;entryX=0.005;entryY=0.63;entryDx=0;entryDy=0;entryPerimeter=0;strokeColor=#457B9D;fillColor=#A8DADC;fontSize=15;fontColor=#003366;fontStyle=1;exitX=1;exitY=0.5;exitDx=0;exitDy=0;" parent="v55RfGFPw0-nptX2fq-p-1" source="kWyG1EHQ2O0DTTXShW4T-6" target="v55RfGFPw0-nptX2fq-p-20" edge="1">
          <mxGeometry relative="1" as="geometry" />
        </mxCell>
        <mxCell id="v55RfGFPw0-nptX2fq-p-144" style="edgeStyle=orthogonalEdgeStyle;curved=0;rounded=1;sketch=0;orthogonalLoop=1;jettySize=auto;html=1;entryX=0.25;entryY=1;entryDx=0;entryDy=0;strokeColor=#457B9D;fillColor=#A8DADC;fontSize=15;fontColor=#003366;fontStyle=1" parent="v55RfGFPw0-nptX2fq-p-1" source="v55RfGFPw0-nptX2fq-p-142" target="v55RfGFPw0-nptX2fq-p-120" edge="1">
          <mxGeometry relative="1" as="geometry" />
        </mxCell>
        <mxCell id="v55RfGFPw0-nptX2fq-p-145" style="edgeStyle=orthogonalEdgeStyle;curved=0;rounded=1;sketch=0;orthogonalLoop=1;jettySize=auto;html=1;entryX=0.25;entryY=0;entryDx=0;entryDy=0;strokeColor=#457B9D;fillColor=#A8DADC;fontSize=15;fontColor=#003366;fontStyle=1;" parent="v55RfGFPw0-nptX2fq-p-1" source="v55RfGFPw0-nptX2fq-p-142" target="v55RfGFPw0-nptX2fq-p-129" edge="1">
          <mxGeometry relative="1" as="geometry" />
        </mxCell>
        <mxCell id="v55RfGFPw0-nptX2fq-p-142" value="nginx" style="html=1;shadow=0;dashed=0;shape=mxgraph.bootstrap.rrect;rSize=5;strokeColor=none;strokeWidth=1;fillColor=#1CA5B8;fontColor=#FFFFFF;whiteSpace=wrap;align=left;verticalAlign=middle;spacingLeft=0;fontStyle=1;fontSize=14;spacing=5;rounded=0;labelBackgroundColor=none;sketch=0;" parent="v55RfGFPw0-nptX2fq-p-1" vertex="1">
          <mxGeometry x="-527" y="320" width="50" height="20" as="geometry" />
        </mxCell>
        <mxCell id="v55RfGFPw0-nptX2fq-p-146" style="edgeStyle=orthogonalEdgeStyle;curved=0;rounded=1;sketch=0;orthogonalLoop=1;jettySize=auto;html=1;entryX=0.25;entryY=1;entryDx=0;entryDy=0;strokeColor=#457B9D;fillColor=#A8DADC;fontSize=15;fontColor=#003366;fontStyle=1" parent="v55RfGFPw0-nptX2fq-p-1" source="v55RfGFPw0-nptX2fq-p-143" target="v55RfGFPw0-nptX2fq-p-120" edge="1">
          <mxGeometry relative="1" as="geometry" />
        </mxCell>
        <mxCell id="v55RfGFPw0-nptX2fq-p-147" style="edgeStyle=orthogonalEdgeStyle;curved=0;rounded=1;sketch=0;orthogonalLoop=1;jettySize=auto;html=1;entryX=0.25;entryY=0;entryDx=0;entryDy=0;strokeColor=#457B9D;fillColor=#A8DADC;fontSize=15;fontColor=#003366;fontStyle=1" parent="v55RfGFPw0-nptX2fq-p-1" source="v55RfGFPw0-nptX2fq-p-143" target="v55RfGFPw0-nptX2fq-p-129" edge="1">
          <mxGeometry relative="1" as="geometry" />
        </mxCell>
        <mxCell id="v55RfGFPw0-nptX2fq-p-143" value="nginx" style="html=1;shadow=0;dashed=0;shape=mxgraph.bootstrap.rrect;rSize=5;strokeColor=none;strokeWidth=1;fillColor=#1CA5B8;fontColor=#FFFFFF;whiteSpace=wrap;align=left;verticalAlign=middle;spacingLeft=0;fontStyle=1;fontSize=14;spacing=5;rounded=0;labelBackgroundColor=none;sketch=0;" parent="v55RfGFPw0-nptX2fq-p-1" vertex="1">
          <mxGeometry x="-527" y="489" width="50" height="20" as="geometry" />
        </mxCell>
        <mxCell id="v55RfGFPw0-nptX2fq-p-153" value="" style="endArrow=classic;html=1;strokeColor=#457B9D;fillColor=#A8DADC;fontSize=15;fontColor=#003366;strokeWidth=10;dashed=1;dashPattern=1 1;endSize=0;opacity=30;fontStyle=1;exitX=1;exitY=0.5;exitDx=0;exitDy=0;" parent="v55RfGFPw0-nptX2fq-p-1" source="v55RfGFPw0-nptX2fq-p-150" edge="1">
          <mxGeometry width="50" height="50" relative="1" as="geometry">
            <mxPoint x="-150" y="470" as="sourcePoint" />
            <mxPoint x="-70" y="250" as="targetPoint" />
            <Array as="points">
              <mxPoint x="-70" y="420" />
            </Array>
          </mxGeometry>
        </mxCell>
        <mxCell id="v55RfGFPw0-nptX2fq-p-154" value="" style="endArrow=classic;html=1;strokeColor=#457B9D;fillColor=#A8DADC;fontSize=15;fontColor=#003366;exitX=1;exitY=0.5;exitDx=0;exitDy=0;strokeWidth=10;dashed=1;dashPattern=1 1;endSize=0;opacity=30;fontStyle=1;" parent="v55RfGFPw0-nptX2fq-p-1" source="v55RfGFPw0-nptX2fq-p-150" edge="1">
          <mxGeometry width="50" height="50" relative="1" as="geometry">
            <mxPoint x="29.999999999999545" y="747.5" as="sourcePoint" />
            <mxPoint x="-70" y="610" as="targetPoint" />
            <Array as="points">
              <mxPoint x="-70" y="420" />
            </Array>
          </mxGeometry>
        </mxCell>
        <mxCell id="v55RfGFPw0-nptX2fq-p-155" value="" style="shape=flexArrow;endArrow=classic;startArrow=classic;html=1;strokeColor=#457B9D;fillColor=#A8DADC;fontSize=17;fontColor=#FF0000;width=11;startSize=8.99;fontStyle=1" parent="v55RfGFPw0-nptX2fq-p-1" edge="1">
          <mxGeometry width="50" height="50" relative="1" as="geometry">
            <mxPoint x="-500.10126582278554" y="489" as="sourcePoint" />
            <mxPoint x="-500.33333333333394" y="340" as="targetPoint" />
            <Array as="points">
              <mxPoint x="-487" y="420" />
            </Array>
          </mxGeometry>
        </mxCell>
        <mxCell id="v55RfGFPw0-nptX2fq-p-156" value="flannel" style="shape=process;whiteSpace=wrap;html=1;backgroundOutline=1;rounded=0;labelBackgroundColor=none;sketch=1;strokeColor=#457B9D;fillColor=#A8DADC;fontSize=15;fontColor=#003366;fontStyle=1" parent="v55RfGFPw0-nptX2fq-p-1" vertex="1">
          <mxGeometry x="326" y="170" width="60" height="600" as="geometry" />
        </mxCell>
        <mxCell id="_DYFNYH4yrblbIv9vSON-3" value="证书环境" style="rounded=0;whiteSpace=wrap;html=1;labelBackgroundColor=none;sketch=1;strokeColor=#457B9D;fillColor=#A8DADC;fontSize=17;fontColor=#003366;fontStyle=1" parent="v55RfGFPw0-nptX2fq-p-1" vertex="1">
          <mxGeometry x="467" y="278" width="80" height="30" as="geometry" />
        </mxCell>
        <mxCell id="v55RfGFPw0-nptX2fq-p-150" value="VIP:10.250.32.99" style="ellipse;whiteSpace=wrap;html=1;rounded=0;labelBackgroundColor=none;sketch=1;strokeColor=#457B9D;fillColor=#A8DADC;fontColor=#FF0000;fontStyle=1;fontSize=17;" parent="v55RfGFPw0-nptX2fq-p-1" vertex="1">
          <mxGeometry x="-497" y="390" width="150" height="60" as="geometry" />
        </mxCell>
        <mxCell id="v55RfGFPw0-nptX2fq-p-152" value="BACKUP" style="text;html=1;strokeColor=none;fillColor=none;align=center;verticalAlign=middle;whiteSpace=wrap;rounded=0;labelBackgroundColor=none;sketch=1;fontSize=17;fontColor=#006600;fontStyle=1" parent="v55RfGFPw0-nptX2fq-p-1" vertex="1">
          <mxGeometry x="-540" y="360" width="40" height="20" as="geometry" />
        </mxCell>
        <mxCell id="v55RfGFPw0-nptX2fq-p-151" value="MASTER" style="text;html=1;strokeColor=none;fillColor=none;align=center;verticalAlign=middle;whiteSpace=wrap;rounded=0;labelBackgroundColor=none;sketch=1;fontSize=17;fontColor=#006600;fontStyle=1" parent="v55RfGFPw0-nptX2fq-p-1" vertex="1">
          <mxGeometry x="-547" y="445" width="40" height="20" as="geometry" />
        </mxCell>
        <mxCell id="v55RfGFPw0-nptX2fq-p-129" value="Auth" style="rounded=0;whiteSpace=wrap;html=1;labelBackgroundColor=none;sketch=1;strokeColor=#457B9D;fillColor=#A8DADC;fontSize=15;fontColor=#003366;fontStyle=1" parent="v55RfGFPw0-nptX2fq-p-1" vertex="1">
          <mxGeometry x="-217" y="572" width="40" height="20" as="geometry" />
        </mxCell>
        <mxCell id="kWyG1EHQ2O0DTTXShW4T-6" value="API Server" style="rounded=0;whiteSpace=wrap;html=1;labelBackgroundColor=none;sketch=1;strokeColor=#457B9D;fillColor=#A8DADC;fontSize=15;fontColor=#003366;fontStyle=1" parent="v55RfGFPw0-nptX2fq-p-1" vertex="1">
          <mxGeometry x="-277" y="592" width="100" height="40" as="geometry" />
        </mxCell>
      </root>
    </mxGraphModel>
  </diagram>
  <diagram id="TBphwpErum8YDHYlSVrR" name="Page-2">
    <mxGraphModel dx="981" dy="517" grid="1" gridSize="10" guides="1" tooltips="1" connect="1" arrows="1" fold="1" page="1" pageScale="1" pageWidth="827" pageHeight="1169" math="0" shadow="0">
      <root>
        <mxCell id="eJ_m5RIErCngbuwPKgwt-0" />
        <mxCell id="eJ_m5RIErCngbuwPKgwt-1" parent="eJ_m5RIErCngbuwPKgwt-0" />
        <mxCell id="M9UASE5Nf7OK4vX0jUGJ-40" value="" style="rounded=0;whiteSpace=wrap;html=1;sketch=0;fontColor=#46495D;strokeColor=#788AA3;fillColor=none;dashed=1;dashPattern=1 2;strokeWidth=2;" parent="eJ_m5RIErCngbuwPKgwt-1" vertex="1">
          <mxGeometry x="730" y="440" width="110" height="140" as="geometry" />
        </mxCell>
        <mxCell id="eJ_m5RIErCngbuwPKgwt-2" value="" style="rounded=0;whiteSpace=wrap;html=1;sketch=0;fontColor=#46495D;strokeColor=#788AA3;fillColor=none;dashed=1;dashPattern=1 2;strokeWidth=2;" parent="eJ_m5RIErCngbuwPKgwt-1" vertex="1">
          <mxGeometry x="169" y="260" width="490" height="320" as="geometry" />
        </mxCell>
        <mxCell id="eJ_m5RIErCngbuwPKgwt-3" value="&lt;font style=&quot;font-size: 17px&quot; color=&quot;#1a3300&quot;&gt;&amp;nbsp;service&lt;/font&gt;" style="rounded=0;whiteSpace=wrap;html=1;sketch=0;strokeColor=#788AA3;strokeWidth=1;fillColor=#B2C9AB;align=left;fontColor=#46495D;" parent="eJ_m5RIErCngbuwPKgwt-1" vertex="1">
          <mxGeometry x="179" y="313" width="470" height="60" as="geometry" />
        </mxCell>
        <mxCell id="eJ_m5RIErCngbuwPKgwt-4" value="ClusterIP" style="rounded=1;whiteSpace=wrap;html=1;sketch=0;fontColor=#46495D;strokeColor=#788AA3;strokeWidth=1;fillColor=#E6E6E6;" parent="eJ_m5RIErCngbuwPKgwt-1" vertex="1">
          <mxGeometry x="273" y="328" width="90" height="30" as="geometry" />
        </mxCell>
        <mxCell id="M9UASE5Nf7OK4vX0jUGJ-42" style="edgeStyle=orthogonalEdgeStyle;rounded=1;sketch=0;jumpSize=3;orthogonalLoop=1;jettySize=auto;html=1;fontColor=#46495D;endArrow=classic;endFill=1;strokeColor=#B09500;strokeWidth=1;fillColor=#e3c800;" parent="eJ_m5RIErCngbuwPKgwt-1" source="eJ_m5RIErCngbuwPKgwt-5" target="M9UASE5Nf7OK4vX0jUGJ-38" edge="1">
          <mxGeometry relative="1" as="geometry">
            <Array as="points">
              <mxPoint x="700" y="343" />
              <mxPoint x="700" y="508" />
            </Array>
          </mxGeometry>
        </mxCell>
        <mxCell id="M9UASE5Nf7OK4vX0jUGJ-43" style="edgeStyle=orthogonalEdgeStyle;rounded=1;sketch=0;jumpSize=3;orthogonalLoop=1;jettySize=auto;html=1;fontColor=#46495D;endArrow=classic;endFill=1;strokeColor=#B09500;strokeWidth=1;fillColor=#e3c800;" parent="eJ_m5RIErCngbuwPKgwt-1" source="eJ_m5RIErCngbuwPKgwt-5" target="M9UASE5Nf7OK4vX0jUGJ-39" edge="1">
          <mxGeometry relative="1" as="geometry">
            <Array as="points">
              <mxPoint x="700" y="343" />
              <mxPoint x="700" y="466" />
            </Array>
          </mxGeometry>
        </mxCell>
        <mxCell id="M9UASE5Nf7OK4vX0jUGJ-44" style="edgeStyle=orthogonalEdgeStyle;rounded=1;sketch=0;jumpSize=3;orthogonalLoop=1;jettySize=auto;html=1;fontColor=#46495D;endArrow=classic;endFill=1;strokeColor=#B09500;strokeWidth=1;fillColor=#e3c800;" parent="eJ_m5RIErCngbuwPKgwt-1" source="eJ_m5RIErCngbuwPKgwt-5" target="M9UASE5Nf7OK4vX0jUGJ-37" edge="1">
          <mxGeometry relative="1" as="geometry">
            <Array as="points">
              <mxPoint x="700" y="343" />
              <mxPoint x="700" y="555" />
            </Array>
          </mxGeometry>
        </mxCell>
        <mxCell id="eJ_m5RIErCngbuwPKgwt-5" value="ExternalName" style="rounded=1;whiteSpace=wrap;html=1;sketch=0;fontColor=#46495D;strokeColor=#788AA3;strokeWidth=1;fillColor=#E6E6E6;" parent="eJ_m5RIErCngbuwPKgwt-1" vertex="1">
          <mxGeometry x="539" y="328" width="90" height="30" as="geometry" />
        </mxCell>
        <mxCell id="M9UASE5Nf7OK4vX0jUGJ-16" style="edgeStyle=none;rounded=1;sketch=0;orthogonalLoop=1;jettySize=auto;html=1;exitX=0.5;exitY=1;exitDx=0;exitDy=0;entryX=0.5;entryY=0;entryDx=0;entryDy=0;fontColor=#46495D;strokeColor=#10739e;fillColor=#b1ddf0;" parent="eJ_m5RIErCngbuwPKgwt-1" source="eJ_m5RIErCngbuwPKgwt-6" target="eJ_m5RIErCngbuwPKgwt-4" edge="1">
          <mxGeometry relative="1" as="geometry" />
        </mxCell>
        <mxCell id="LEesjt0Q1XhR1uxeHa87-4" value="" style="rounded=0;whiteSpace=wrap;html=1;sketch=0;strokeColor=#82b366;fillColor=#d5e8d4;" parent="eJ_m5RIErCngbuwPKgwt-1" vertex="1">
          <mxGeometry x="179" y="393" width="131" height="130" as="geometry" />
        </mxCell>
        <mxCell id="LEesjt0Q1XhR1uxeHa87-5" value="node1" style="text;html=1;strokeColor=none;fillColor=none;align=center;verticalAlign=middle;whiteSpace=wrap;rounded=0;sketch=0;fontColor=#46495D;" parent="eJ_m5RIErCngbuwPKgwt-1" vertex="1">
          <mxGeometry x="225" y="503" width="40" height="20" as="geometry" />
        </mxCell>
        <mxCell id="LEesjt0Q1XhR1uxeHa87-6" value="" style="rounded=0;whiteSpace=wrap;html=1;sketch=0;strokeColor=#82b366;fillColor=#d5e8d4;" parent="eJ_m5RIErCngbuwPKgwt-1" vertex="1">
          <mxGeometry x="348" y="393" width="131" height="130" as="geometry" />
        </mxCell>
        <mxCell id="LEesjt0Q1XhR1uxeHa87-7" value="node2" style="text;html=1;strokeColor=none;fillColor=none;align=center;verticalAlign=middle;whiteSpace=wrap;rounded=0;sketch=0;fontColor=#46495D;" parent="eJ_m5RIErCngbuwPKgwt-1" vertex="1">
          <mxGeometry x="394" y="503" width="40" height="20" as="geometry" />
        </mxCell>
        <mxCell id="LEesjt0Q1XhR1uxeHa87-8" value="" style="rounded=0;whiteSpace=wrap;html=1;sketch=0;strokeColor=#82b366;fillColor=#d5e8d4;" parent="eJ_m5RIErCngbuwPKgwt-1" vertex="1">
          <mxGeometry x="518" y="393" width="131" height="130" as="geometry" />
        </mxCell>
        <mxCell id="LEesjt0Q1XhR1uxeHa87-9" value="node3" style="text;html=1;strokeColor=none;fillColor=none;align=center;verticalAlign=middle;whiteSpace=wrap;rounded=0;sketch=0;fontColor=#46495D;" parent="eJ_m5RIErCngbuwPKgwt-1" vertex="1">
          <mxGeometry x="564" y="503" width="40" height="20" as="geometry" />
        </mxCell>
        <mxCell id="M9UASE5Nf7OK4vX0jUGJ-20" style="edgeStyle=none;rounded=1;sketch=0;orthogonalLoop=1;jettySize=auto;html=1;exitX=0.5;exitY=1;exitDx=0;exitDy=0;exitPerimeter=0;entryX=0.078;entryY=0;entryDx=0;entryDy=0;entryPerimeter=0;fontColor=#46495D;strokeColor=#788AA3;fillColor=#B2C9AB;endArrow=none;endFill=0;strokeWidth=6;dashed=1;dashPattern=1 1;jumpSize=3;" parent="eJ_m5RIErCngbuwPKgwt-1" source="M9UASE5Nf7OK4vX0jUGJ-0" target="M9UASE5Nf7OK4vX0jUGJ-17" edge="1">
          <mxGeometry relative="1" as="geometry" />
        </mxCell>
        <mxCell id="M9UASE5Nf7OK4vX0jUGJ-0" value="" style="html=1;dashed=0;whitespace=wrap;fillColor=#A8DADC;strokeColor=#457B9D;points=[[0.005,0.63,0],[0.1,0.2,0],[0.9,0.2,0],[0.5,0,0],[0.995,0.63,0],[0.72,0.99,0],[0.5,1,0],[0.28,0.99,0]];shape=mxgraph.kubernetes.icon;prIcon=pod;rounded=0;sketch=0;fontSize=16;fontColor=#1D3557;fontStyle=1" parent="eJ_m5RIErCngbuwPKgwt-1" vertex="1">
          <mxGeometry x="190" y="433" width="50" height="48" as="geometry" />
        </mxCell>
        <mxCell id="M9UASE5Nf7OK4vX0jUGJ-1" value="" style="html=1;dashed=0;whitespace=wrap;fillColor=#A8DADC;strokeColor=#457B9D;points=[[0.005,0.63,0],[0.1,0.2,0],[0.9,0.2,0],[0.5,0,0],[0.995,0.63,0],[0.72,0.99,0],[0.5,1,0],[0.28,0.99,0]];shape=mxgraph.kubernetes.icon;prIcon=pod;rounded=0;sketch=0;fontSize=16;fontColor=#1D3557;fontStyle=1" parent="eJ_m5RIErCngbuwPKgwt-1" vertex="1">
          <mxGeometry x="250" y="434" width="50" height="48" as="geometry" />
        </mxCell>
        <mxCell id="M9UASE5Nf7OK4vX0jUGJ-2" value="" style="html=1;dashed=0;whitespace=wrap;fillColor=#A8DADC;strokeColor=#457B9D;points=[[0.005,0.63,0],[0.1,0.2,0],[0.9,0.2,0],[0.5,0,0],[0.995,0.63,0],[0.72,0.99,0],[0.5,1,0],[0.28,0.99,0]];shape=mxgraph.kubernetes.icon;prIcon=pod;rounded=0;sketch=0;fontSize=16;fontColor=#1D3557;fontStyle=1" parent="eJ_m5RIErCngbuwPKgwt-1" vertex="1">
          <mxGeometry x="363" y="434" width="50" height="48" as="geometry" />
        </mxCell>
        <mxCell id="M9UASE5Nf7OK4vX0jUGJ-3" value="" style="html=1;dashed=0;whitespace=wrap;fillColor=#A8DADC;strokeColor=#457B9D;points=[[0.005,0.63,0],[0.1,0.2,0],[0.9,0.2,0],[0.5,0,0],[0.995,0.63,0],[0.72,0.99,0],[0.5,1,0],[0.28,0.99,0]];shape=mxgraph.kubernetes.icon;prIcon=pod;rounded=0;sketch=0;fontSize=16;fontColor=#1D3557;fontStyle=1" parent="eJ_m5RIErCngbuwPKgwt-1" vertex="1">
          <mxGeometry x="420" y="434" width="50" height="48" as="geometry" />
        </mxCell>
        <mxCell id="M9UASE5Nf7OK4vX0jUGJ-4" value="" style="html=1;dashed=0;whitespace=wrap;fillColor=#A8DADC;strokeColor=#457B9D;points=[[0.005,0.63,0],[0.1,0.2,0],[0.9,0.2,0],[0.5,0,0],[0.995,0.63,0],[0.72,0.99,0],[0.5,1,0],[0.28,0.99,0]];shape=mxgraph.kubernetes.icon;prIcon=pod;rounded=0;sketch=0;fontSize=16;fontColor=#1D3557;fontStyle=1" parent="eJ_m5RIErCngbuwPKgwt-1" vertex="1">
          <mxGeometry x="529" y="434" width="50" height="48" as="geometry" />
        </mxCell>
        <mxCell id="M9UASE5Nf7OK4vX0jUGJ-5" value="" style="html=1;dashed=0;whitespace=wrap;fillColor=#A8DADC;strokeColor=#457B9D;points=[[0.005,0.63,0],[0.1,0.2,0],[0.9,0.2,0],[0.5,0,0],[0.995,0.63,0],[0.72,0.99,0],[0.5,1,0],[0.28,0.99,0]];shape=mxgraph.kubernetes.icon;prIcon=pod;rounded=0;sketch=0;fontSize=16;fontColor=#1D3557;fontStyle=1" parent="eJ_m5RIErCngbuwPKgwt-1" vertex="1">
          <mxGeometry x="590" y="433" width="50" height="48" as="geometry" />
        </mxCell>
        <mxCell id="M9UASE5Nf7OK4vX0jUGJ-12" style="edgeStyle=none;rounded=1;sketch=0;orthogonalLoop=1;jettySize=auto;html=1;exitX=0.5;exitY=1;exitDx=0;exitDy=0;entryX=0.5;entryY=0;entryDx=0;entryDy=0;entryPerimeter=0;fontColor=#46495D;strokeColor=#10739e;fillColor=#b1ddf0;" parent="eJ_m5RIErCngbuwPKgwt-1" source="eJ_m5RIErCngbuwPKgwt-4" target="M9UASE5Nf7OK4vX0jUGJ-0" edge="1">
          <mxGeometry relative="1" as="geometry" />
        </mxCell>
        <mxCell id="M9UASE5Nf7OK4vX0jUGJ-14" style="edgeStyle=none;rounded=1;sketch=0;orthogonalLoop=1;jettySize=auto;html=1;entryX=0.5;entryY=0;entryDx=0;entryDy=0;entryPerimeter=0;fontColor=#46495D;strokeColor=#10739e;fillColor=#b1ddf0;exitX=0.5;exitY=1;exitDx=0;exitDy=0;" parent="eJ_m5RIErCngbuwPKgwt-1" source="eJ_m5RIErCngbuwPKgwt-4" target="M9UASE5Nf7OK4vX0jUGJ-2" edge="1">
          <mxGeometry relative="1" as="geometry">
            <mxPoint x="354" y="358" as="sourcePoint" />
          </mxGeometry>
        </mxCell>
        <mxCell id="M9UASE5Nf7OK4vX0jUGJ-15" style="edgeStyle=none;rounded=1;sketch=0;orthogonalLoop=1;jettySize=auto;html=1;entryX=0.5;entryY=0;entryDx=0;entryDy=0;entryPerimeter=0;fontColor=#46495D;strokeColor=#10739e;fillColor=#b1ddf0;exitX=0.5;exitY=1;exitDx=0;exitDy=0;" parent="eJ_m5RIErCngbuwPKgwt-1" source="eJ_m5RIErCngbuwPKgwt-4" target="M9UASE5Nf7OK4vX0jUGJ-4" edge="1">
          <mxGeometry relative="1" as="geometry" />
        </mxCell>
        <mxCell id="M9UASE5Nf7OK4vX0jUGJ-17" value="&lt;font style=&quot;font-size: 11px&quot; color=&quot;#1a3300&quot;&gt;flannel/calico 网络&lt;/font&gt;" style="rounded=0;whiteSpace=wrap;html=1;sketch=0;strokeColor=#788AA3;strokeWidth=1;fillColor=#B2C9AB;align=center;fontColor=#46495D;" parent="eJ_m5RIErCngbuwPKgwt-1" vertex="1">
          <mxGeometry x="178" y="540" width="470" height="30" as="geometry" />
        </mxCell>
        <mxCell id="M9UASE5Nf7OK4vX0jUGJ-21" style="edgeStyle=none;rounded=1;sketch=0;orthogonalLoop=1;jettySize=auto;html=1;exitX=0.5;exitY=1;exitDx=0;exitDy=0;exitPerimeter=0;fontColor=#46495D;strokeColor=#788AA3;fillColor=#B2C9AB;endArrow=none;endFill=0;strokeWidth=6;dashed=1;dashPattern=1 1;jumpSize=3;" parent="eJ_m5RIErCngbuwPKgwt-1" source="M9UASE5Nf7OK4vX0jUGJ-1" edge="1">
          <mxGeometry relative="1" as="geometry">
            <mxPoint x="225" y="490.9999999999998" as="sourcePoint" />
            <mxPoint x="275" y="542" as="targetPoint" />
          </mxGeometry>
        </mxCell>
        <mxCell id="M9UASE5Nf7OK4vX0jUGJ-22" style="edgeStyle=none;rounded=1;sketch=0;orthogonalLoop=1;jettySize=auto;html=1;exitX=0.5;exitY=1;exitDx=0;exitDy=0;exitPerimeter=0;fontColor=#46495D;strokeColor=#788AA3;fillColor=#B2C9AB;endArrow=none;endFill=0;strokeWidth=6;dashed=1;dashPattern=1 1;jumpSize=3;" parent="eJ_m5RIErCngbuwPKgwt-1" source="M9UASE5Nf7OK4vX0jUGJ-2" edge="1">
          <mxGeometry relative="1" as="geometry">
            <mxPoint x="387.58" y="480" as="sourcePoint" />
            <mxPoint x="388" y="540" as="targetPoint" />
          </mxGeometry>
        </mxCell>
        <mxCell id="M9UASE5Nf7OK4vX0jUGJ-23" style="edgeStyle=none;rounded=1;sketch=0;orthogonalLoop=1;jettySize=auto;html=1;fontColor=#46495D;strokeColor=#788AA3;fillColor=#B2C9AB;endArrow=none;endFill=0;strokeWidth=6;dashed=1;dashPattern=1 1;jumpSize=3;exitX=0.5;exitY=1;exitDx=0;exitDy=0;exitPerimeter=0;" parent="eJ_m5RIErCngbuwPKgwt-1" source="M9UASE5Nf7OK4vX0jUGJ-3" edge="1">
          <mxGeometry relative="1" as="geometry">
            <mxPoint x="445" y="480" as="sourcePoint" />
            <mxPoint x="444.5799999999999" y="540" as="targetPoint" />
          </mxGeometry>
        </mxCell>
        <mxCell id="M9UASE5Nf7OK4vX0jUGJ-24" style="edgeStyle=none;rounded=1;sketch=0;orthogonalLoop=1;jettySize=auto;html=1;fontColor=#46495D;strokeColor=#788AA3;fillColor=#B2C9AB;endArrow=none;endFill=0;strokeWidth=6;dashed=1;dashPattern=1 1;jumpSize=3;exitX=0.5;exitY=1;exitDx=0;exitDy=0;exitPerimeter=0;" parent="eJ_m5RIErCngbuwPKgwt-1" edge="1">
          <mxGeometry relative="1" as="geometry">
            <mxPoint x="554.0000000000001" y="481" as="sourcePoint" />
            <mxPoint x="553.5799999999999" y="539" as="targetPoint" />
          </mxGeometry>
        </mxCell>
        <mxCell id="M9UASE5Nf7OK4vX0jUGJ-25" style="edgeStyle=none;rounded=1;sketch=0;orthogonalLoop=1;jettySize=auto;html=1;fontColor=#46495D;strokeColor=#788AA3;fillColor=#B2C9AB;endArrow=none;endFill=0;strokeWidth=6;dashed=1;dashPattern=1 1;jumpSize=3;exitX=0.5;exitY=1;exitDx=0;exitDy=0;exitPerimeter=0;" parent="eJ_m5RIErCngbuwPKgwt-1" edge="1">
          <mxGeometry relative="1" as="geometry">
            <mxPoint x="615" y="481" as="sourcePoint" />
            <mxPoint x="614.5799999999999" y="539" as="targetPoint" />
          </mxGeometry>
        </mxCell>
        <mxCell id="M9UASE5Nf7OK4vX0jUGJ-26" value="frontend" style="rounded=1;whiteSpace=wrap;html=1;sketch=0;fontColor=#46495D;strokeColor=#788AA3;strokeWidth=1;fillColor=#E6E6E6;" parent="eJ_m5RIErCngbuwPKgwt-1" vertex="1">
          <mxGeometry x="280" y="100" width="80" height="30" as="geometry" />
        </mxCell>
        <mxCell id="M9UASE5Nf7OK4vX0jUGJ-27" value="&lt;font style=&quot;font-size: 17px&quot; color=&quot;#1a3300&quot;&gt;网关&lt;/font&gt;" style="rounded=0;whiteSpace=wrap;html=1;sketch=0;strokeColor=#788AA3;strokeWidth=1;fillColor=#B2C9AB;align=center;fontColor=#46495D;" parent="eJ_m5RIErCngbuwPKgwt-1" vertex="1">
          <mxGeometry x="176" y="190" width="472" height="40" as="geometry" />
        </mxCell>
        <mxCell id="M9UASE5Nf7OK4vX0jUGJ-31" style="edgeStyle=none;rounded=1;sketch=0;orthogonalLoop=1;jettySize=auto;html=1;exitX=0.5;exitY=0;exitDx=0;exitDy=0;entryX=0;entryY=0.75;entryDx=0;entryDy=0;fontColor=#46495D;strokeColor=#B09500;fillColor=#e3c800;exitPerimeter=0;" parent="eJ_m5RIErCngbuwPKgwt-1" source="M9UASE5Nf7OK4vX0jUGJ-1" target="eJ_m5RIErCngbuwPKgwt-5" edge="1">
          <mxGeometry relative="1" as="geometry">
            <mxPoint x="328" y="367.9999999999999" as="sourcePoint" />
            <mxPoint x="225" y="443" as="targetPoint" />
          </mxGeometry>
        </mxCell>
        <mxCell id="M9UASE5Nf7OK4vX0jUGJ-32" style="edgeStyle=none;rounded=1;sketch=0;orthogonalLoop=1;jettySize=auto;html=1;exitX=0.5;exitY=0;exitDx=0;exitDy=0;entryX=0;entryY=0.75;entryDx=0;entryDy=0;fontColor=#46495D;strokeColor=#B09500;fillColor=#e3c800;exitPerimeter=0;" parent="eJ_m5RIErCngbuwPKgwt-1" source="M9UASE5Nf7OK4vX0jUGJ-3" target="eJ_m5RIErCngbuwPKgwt-5" edge="1">
          <mxGeometry relative="1" as="geometry">
            <mxPoint x="285" y="444" as="sourcePoint" />
            <mxPoint x="549" y="360.4999999999999" as="targetPoint" />
          </mxGeometry>
        </mxCell>
        <mxCell id="M9UASE5Nf7OK4vX0jUGJ-33" style="edgeStyle=none;rounded=1;sketch=0;orthogonalLoop=1;jettySize=auto;html=1;exitX=0.5;exitY=0;exitDx=0;exitDy=0;entryX=0.5;entryY=1;entryDx=0;entryDy=0;fontColor=#46495D;strokeColor=#B09500;fillColor=#e3c800;exitPerimeter=0;" parent="eJ_m5RIErCngbuwPKgwt-1" source="M9UASE5Nf7OK4vX0jUGJ-5" target="eJ_m5RIErCngbuwPKgwt-5" edge="1">
          <mxGeometry relative="1" as="geometry">
            <mxPoint x="455.0000000000001" y="444" as="sourcePoint" />
            <mxPoint x="549" y="360.4999999999999" as="targetPoint" />
          </mxGeometry>
        </mxCell>
        <mxCell id="M9UASE5Nf7OK4vX0jUGJ-34" value="" style="endArrow=classic;html=1;fontColor=#46495D;strokeColor=#10739e;strokeWidth=1;fillColor=#b1ddf0;exitX=0.3;exitY=1.004;exitDx=0;exitDy=0;exitPerimeter=0;" parent="eJ_m5RIErCngbuwPKgwt-1" source="M9UASE5Nf7OK4vX0jUGJ-27" edge="1">
          <mxGeometry width="50" height="50" relative="1" as="geometry">
            <mxPoint x="440" y="400" as="sourcePoint" />
            <mxPoint x="318" y="249" as="targetPoint" />
          </mxGeometry>
        </mxCell>
        <mxCell id="M9UASE5Nf7OK4vX0jUGJ-36" value="" style="endArrow=classic;html=1;fontColor=#46495D;strokeColor=#10739e;strokeWidth=1;fillColor=#b1ddf0;exitX=0.5;exitY=1;exitDx=0;exitDy=0;" parent="eJ_m5RIErCngbuwPKgwt-1" source="M9UASE5Nf7OK4vX0jUGJ-26" edge="1">
          <mxGeometry width="50" height="50" relative="1" as="geometry">
            <mxPoint x="440" y="400" as="sourcePoint" />
            <mxPoint x="320" y="189" as="targetPoint" />
          </mxGeometry>
        </mxCell>
        <mxCell id="M9UASE5Nf7OK4vX0jUGJ-37" value="DB" style="rounded=0;whiteSpace=wrap;html=1;sketch=0;strokeColor=#82b366;fillColor=#d5e8d4;align=center;" parent="eJ_m5RIErCngbuwPKgwt-1" vertex="1">
          <mxGeometry x="740" y="540" width="90" height="30" as="geometry" />
        </mxCell>
        <mxCell id="M9UASE5Nf7OK4vX0jUGJ-38" value="配置中心" style="rounded=0;whiteSpace=wrap;html=1;sketch=0;strokeColor=#82b366;fillColor=#d5e8d4;align=center;" parent="eJ_m5RIErCngbuwPKgwt-1" vertex="1">
          <mxGeometry x="740" y="493" width="90" height="30" as="geometry" />
        </mxCell>
        <mxCell id="M9UASE5Nf7OK4vX0jUGJ-39" value="注册中心" style="rounded=0;whiteSpace=wrap;html=1;sketch=0;strokeColor=#82b366;fillColor=#d5e8d4;align=center;" parent="eJ_m5RIErCngbuwPKgwt-1" vertex="1">
          <mxGeometry x="740" y="451" width="90" height="30" as="geometry" />
        </mxCell>
        <mxCell id="My8uNSkbfWBX3oudCB7m-0" value="traefik" style="rounded=1;whiteSpace=wrap;html=1;sketch=0;fontColor=#46495D;strokeColor=#788AA3;strokeWidth=1;fillColor=#E6E6E6;" vertex="1" parent="eJ_m5RIErCngbuwPKgwt-1">
          <mxGeometry x="234.5" y="250" width="375.5" height="30" as="geometry" />
        </mxCell>
        <mxCell id="eJ_m5RIErCngbuwPKgwt-6" value="ingress" style="rounded=1;whiteSpace=wrap;html=1;sketch=0;fontColor=#46495D;strokeColor=#788AA3;strokeWidth=1;fillColor=#E6E6E6;" parent="eJ_m5RIErCngbuwPKgwt-1" vertex="1">
          <mxGeometry x="273" y="270" width="90" height="30" as="geometry" />
        </mxCell>
        <mxCell id="My8uNSkbfWBX3oudCB7m-1" value="ingress" style="rounded=1;whiteSpace=wrap;html=1;sketch=0;fontColor=#46495D;strokeColor=#788AA3;strokeWidth=1;fillColor=#E6E6E6;" vertex="1" parent="eJ_m5RIErCngbuwPKgwt-1">
          <mxGeometry x="460" y="270" width="90" height="30" as="geometry" />
        </mxCell>
      </root>
    </mxGraphModel>
  </diagram>
</mxfile>
